<svg xmlns="http://www.w3.org/2000/svg" viewBox="0 0 200 200">
  <rect x="80" y="50" width="40" height="130" rx="20" fill="none" stroke="#000" stroke-width="3"/>
  <path d="M80 100 L60 100 Q40 100 40 120 L40 130 Q40 150 60 150 L80 150" fill="none" stroke="#000" stroke-width="3"/>
  <path d="M120 80 L140 80 Q160 80 160 100 L160 105 Q160 125 140 125 L120 125" fill="none" stroke="#000" stroke-width="3"/>
  <line x1="90" y1="70" x2="90" y2="75" stroke="#000" stroke-width="2"/>
  <line x1="100" y1="80" x2="100" y2="85" stroke="#000" stroke-width="2"/>
  <line x1="110" y1="70" x2="110" y2="75" stroke="#000" stroke-width="2"/>
  <line x1="90" y1="120" x2="90" y2="125" stroke="#000" stroke-width="2"/>
  <line x1="100" y1="130" x2="100" y2="135" stroke="#000" stroke-width="2"/>
  <line x1="110" y1="120" x2="110" y2="125" stroke="#000" stroke-width="2"/>
  <path d="M60 180 L140 180" fill="none" stroke="#000" stroke-width="3"/>
</svg>
