<svg xmlns="http://www.w3.org/2000/svg" viewBox="0 0 200 200">
  <ellipse cx="100" cy="130" rx="60" ry="40" fill="none" stroke="#000" stroke-width="3"/>
  <circle cx="145" cy="85" r="30" fill="none" stroke="#000" stroke-width="3"/>
  <path d="M160 55 L175 15 L155 50" fill="none" stroke="#000" stroke-width="3"/>
  <circle cx="155" cy="80" r="5" fill="none" stroke="#000" stroke-width="2"/>
  <path d="M165 95 Q175 100 170 105" fill="none" stroke="#000" stroke-width="2"/>
  <path d="M120 70 Q130 50 140 60" fill="none" stroke="#000" stroke-width="2"/>
  <path d="M125 75 Q120 55 130 55" fill="none" stroke="#000" stroke-width="2"/>
  <path d="M45 130 L40 170 L50 165" fill="none" stroke="#000" stroke-width="2"/>
  <path d="M75 135 L70 175 L80 170" fill="none" stroke="#000" stroke-width="2"/>
  <path d="M125 135 L120 175 L130 170" fill="none" stroke="#000" stroke-width="2"/>
  <path d="M155 130 L150 170 L160 165" fill="none" stroke="#000" stroke-width="2"/>
  <path d="M30 120 Q15 100 25 80 Q35 100 45 105" fill="none" stroke="#000" stroke-width="2"/>
</svg>
